<svg xmlns="http://www.w3.org/2000/svg" width="830" height="56" viewBox="0 0 830 56"><title>Footer</title><style>.blink{animation:b 2s steps(1) infinite}@keyframes b{50%{opacity:0}}</style><rect x="0" y="8" width="830" height="1" fill="#d0d7de"/><g transform="translate(0 22) scale(2)" shape-rendering="crispEdges"><rect x="2" y="0" width="1" height="1" fill="#656d76"/><rect x="1" y="1" width="1" height="1" fill="#656d76"/><rect x="2" y="1" width="1" height="1" fill="#656d76"/><rect x="3" y="1" width="1" height="1" fill="#656d76"/><rect x="1" y="2" width="1" height="1" fill="#656d76"/><rect x="3" y="2" width="1" height="1" fill="#656d76"/><rect x="1" y="3" width="1" height="1" fill="#656d76"/><rect x="2" y="3" width="1" height="1" fill="#656d76"/><rect x="3" y="3" width="1" height="1" fill="#656d76"/><rect x="2" y="4" width="1" height="1" fill="#656d76"/><rect x="2" y="5" width="1" height="1" fill="#656d76"/><rect x="1" y="6" width="1" height="1" fill="#656d76"/><rect x="2" y="6" width="1" height="1" fill="#656d76"/><rect x="3" y="6" width="1" height="1" fill="#656d76"/><rect x="1" y="7" width="1" height="1" fill="#656d76"/><rect x="3" y="7" width="1" height="1" fill="#656d76"/><rect x="1" y="8" width="1" height="1" fill="#656d76"/><rect x="2" y="8" width="1" height="1" fill="#656d76"/><rect x="3" y="8" width="1" height="1" fill="#656d76"/><rect x="1" y="9" width="1" height="1" fill="#656d76"/><rect x="3" y="9" width="1" height="1" fill="#656d76"/><rect x="1" y="10" width="1" height="1" fill="#656d76"/><rect x="2" y="10" width="1" height="1" fill="#656d76"/><rect x="3" y="10" width="1" height="1" fill="#656d76"/><rect x="0" y="11" width="1" height="1" fill="#656d76"/><rect x="1" y="11" width="1" height="1" fill="#656d76"/><rect x="2" y="11" width="1" height="1" fill="#656d76"/><rect x="3" y="11" width="1" height="1" fill="#656d76"/><rect x="4" y="11" width="1" height="1" fill="#656d76"/><rect x="2" y="0" width="1" height="1" fill="#d2461f" class="blink"/></g><text x="22" y="44" font-family="ui-monospace, SFMono-Regular, Menlo, Consolas, 'Liberation Mono', monospace" font-size="11" fill="#8c959f" letter-spacing="1.4">© 2026 ADIL ASSELMAN</text><text x="830" y="44" font-family="ui-monospace, SFMono-Regular, Menlo, Consolas, 'Liberation Mono', monospace" font-size="11" fill="#8c959f" letter-spacing="1.4" text-anchor="end">BUILT IN TANGER, WHERE TWO SEAS MEET</text></svg>