<svg xmlns="http://www.w3.org/2000/svg" width="830" height="234" viewBox="0 0 830 234"><title>Toolbox: LANGUAGES: C, C++, TypeScript, JavaScript, Python, SQL; WEB: Next.js, NestJS, React, Node.js, PostgreSQL, Prisma; AI: Claude API, Gemini API, E2B sandboxes, Claude Code; GAMES: Godot, Unity; OPS: Docker, Nginx, AWS EC2, Linux, Git, K3s</title><g transform="translate(0 11) scale(2)" shape-rendering="crispEdges"><rect x="1" y="0" width="1" height="1" fill="#d2461f"/><rect x="3" y="0" width="1" height="1" fill="#d2461f"/><rect x="0" y="1" width="1" height="1" fill="#d2461f"/><rect x="1" y="1" width="1" height="1" fill="#d2461f"/><rect x="2" y="1" width="1" height="1" fill="#d2461f"/><rect x="3" y="1" width="1" height="1" fill="#d2461f"/><rect x="4" y="1" width="1" height="1" fill="#d2461f"/><rect x="0" y="2" width="1" height="1" fill="#d2461f"/><rect x="4" y="2" width="1" height="1" fill="#d2461f"/><rect x="0" y="3" width="1" height="1" fill="#d2461f"/><rect x="2" y="3" width="1" height="1" fill="#d2461f"/><rect x="4" y="3" width="1" height="1" fill="#d2461f"/><rect x="0" y="4" width="1" height="1" fill="#d2461f"/><rect x="4" y="4" width="1" height="1" fill="#d2461f"/><rect x="0" y="5" width="1" height="1" fill="#d2461f"/><rect x="1" y="5" width="1" height="1" fill="#d2461f"/><rect x="2" y="5" width="1" height="1" fill="#d2461f"/><rect x="3" y="5" width="1" height="1" fill="#d2461f"/><rect x="4" y="5" width="1" height="1" fill="#d2461f"/><rect x="1" y="6" width="1" height="1" fill="#d2461f"/><rect x="3" y="6" width="1" height="1" fill="#d2461f"/></g><text x="22" y="23" font-family="ui-monospace, SFMono-Regular, Menlo, Consolas, 'Liberation Mono', monospace" font-size="11" fill="#656d76" letter-spacing="1.4">LANGUAGES</text><rect x="150" y="4" width="33" height="28" rx="14" fill="#f6f8fa" stroke="#d0d7de"/><text x="163" y="22.5" font-family="ui-monospace, SFMono-Regular, Menlo, Consolas, 'Liberation Mono', monospace" font-size="13" fill="#1f2328">C</text><rect x="191" y="4" width="49" height="28" rx="14" fill="#f6f8fa" stroke="#d0d7de"/><text x="204" y="22.5" font-family="ui-monospace, SFMono-Regular, Menlo, Consolas, 'Liberation Mono', monospace" font-size="13" fill="#1f2328">C++</text><rect x="248" y="4" width="105" height="28" rx="14" fill="#f6f8fa" stroke="#d0d7de"/><text x="261" y="22.5" font-family="ui-monospace, SFMono-Regular, Menlo, Consolas, 'Liberation Mono', monospace" font-size="13" fill="#1f2328">TypeScript</text><rect x="361" y="4" width="105" height="28" rx="14" fill="#f6f8fa" stroke="#d0d7de"/><text x="374" y="22.5" font-family="ui-monospace, SFMono-Regular, Menlo, Consolas, 'Liberation Mono', monospace" font-size="13" fill="#1f2328">JavaScript</text><rect x="474" y="4" width="73" height="28" rx="14" fill="#f6f8fa" stroke="#d0d7de"/><text x="487" y="22.5" font-family="ui-monospace, SFMono-Regular, Menlo, Consolas, 'Liberation Mono', monospace" font-size="13" fill="#1f2328">Python</text><rect x="555" y="4" width="49" height="28" rx="14" fill="#f6f8fa" stroke="#d0d7de"/><text x="568" y="22.5" font-family="ui-monospace, SFMono-Regular, Menlo, Consolas, 'Liberation Mono', monospace" font-size="13" fill="#1f2328">SQL</text><g transform="translate(0 57) scale(2)" shape-rendering="crispEdges"><rect x="1" y="0" width="1" height="1" fill="#d2461f"/><rect x="2" y="0" width="1" height="1" fill="#d2461f"/><rect x="3" y="0" width="1" height="1" fill="#d2461f"/><rect x="0" y="1" width="1" height="1" fill="#d2461f"/><rect x="2" y="1" width="1" height="1" fill="#d2461f"/><rect x="4" y="1" width="1" height="1" fill="#d2461f"/><rect x="0" y="2" width="1" height="1" fill="#d2461f"/><rect x="1" y="2" width="1" height="1" fill="#d2461f"/><rect x="2" y="2" width="1" height="1" fill="#d2461f"/><rect x="3" y="2" width="1" height="1" fill="#d2461f"/><rect x="4" y="2" width="1" height="1" fill="#d2461f"/><rect x="0" y="3" width="1" height="1" fill="#d2461f"/><rect x="2" y="3" width="1" height="1" fill="#d2461f"/><rect x="4" y="3" width="1" height="1" fill="#d2461f"/><rect x="0" y="4" width="1" height="1" fill="#d2461f"/><rect x="1" y="4" width="1" height="1" fill="#d2461f"/><rect x="2" y="4" width="1" height="1" fill="#d2461f"/><rect x="3" y="4" width="1" height="1" fill="#d2461f"/><rect x="4" y="4" width="1" height="1" fill="#d2461f"/><rect x="0" y="5" width="1" height="1" fill="#d2461f"/><rect x="2" y="5" width="1" height="1" fill="#d2461f"/><rect x="4" y="5" width="1" height="1" fill="#d2461f"/><rect x="1" y="6" width="1" height="1" fill="#d2461f"/><rect x="2" y="6" width="1" height="1" fill="#d2461f"/><rect x="3" y="6" width="1" height="1" fill="#d2461f"/></g><text x="22" y="69" font-family="ui-monospace, SFMono-Regular, Menlo, Consolas, 'Liberation Mono', monospace" font-size="11" fill="#656d76" letter-spacing="1.4">WEB</text><rect x="150" y="50" width="81" height="28" rx="14" fill="#f6f8fa" stroke="#d0d7de"/><text x="163" y="68.5" font-family="ui-monospace, SFMono-Regular, Menlo, Consolas, 'Liberation Mono', monospace" font-size="13" fill="#1f2328">Next.js</text><rect x="239" y="50" width="73" height="28" rx="14" fill="#f6f8fa" stroke="#d0d7de"/><text x="252" y="68.5" font-family="ui-monospace, SFMono-Regular, Menlo, Consolas, 'Liberation Mono', monospace" font-size="13" fill="#1f2328">NestJS</text><rect x="320" y="50" width="65" height="28" rx="14" fill="#f6f8fa" stroke="#d0d7de"/><text x="333" y="68.5" font-family="ui-monospace, SFMono-Regular, Menlo, Consolas, 'Liberation Mono', monospace" font-size="13" fill="#1f2328">React</text><rect x="393" y="50" width="81" height="28" rx="14" fill="#f6f8fa" stroke="#d0d7de"/><text x="406" y="68.5" font-family="ui-monospace, SFMono-Regular, Menlo, Consolas, 'Liberation Mono', monospace" font-size="13" fill="#1f2328">Node.js</text><rect x="482" y="50" width="105" height="28" rx="14" fill="#f6f8fa" stroke="#d0d7de"/><text x="495" y="68.5" font-family="ui-monospace, SFMono-Regular, Menlo, Consolas, 'Liberation Mono', monospace" font-size="13" fill="#1f2328">PostgreSQL</text><rect x="595" y="50" width="73" height="28" rx="14" fill="#f6f8fa" stroke="#d0d7de"/><text x="608" y="68.5" font-family="ui-monospace, SFMono-Regular, Menlo, Consolas, 'Liberation Mono', monospace" font-size="13" fill="#1f2328">Prisma</text><g transform="translate(0 103) scale(2)" shape-rendering="crispEdges"><rect x="2" y="0" width="1" height="1" fill="#d2461f"/><rect x="2" y="1" width="1" height="1" fill="#d2461f"/><rect x="1" y="2" width="1" height="1" fill="#d2461f"/><rect x="2" y="2" width="1" height="1" fill="#d2461f"/><rect x="3" y="2" width="1" height="1" fill="#d2461f"/><rect x="0" y="3" width="1" height="1" fill="#d2461f"/><rect x="1" y="3" width="1" height="1" fill="#d2461f"/><rect x="2" y="3" width="1" height="1" fill="#d2461f"/><rect x="3" y="3" width="1" height="1" fill="#d2461f"/><rect x="4" y="3" width="1" height="1" fill="#d2461f"/><rect x="1" y="4" width="1" height="1" fill="#d2461f"/><rect x="2" y="4" width="1" height="1" fill="#d2461f"/><rect x="3" y="4" width="1" height="1" fill="#d2461f"/><rect x="2" y="5" width="1" height="1" fill="#d2461f"/><rect x="2" y="6" width="1" height="1" fill="#d2461f"/></g><text x="22" y="115" font-family="ui-monospace, SFMono-Regular, Menlo, Consolas, 'Liberation Mono', monospace" font-size="11" fill="#656d76" letter-spacing="1.4">AI</text><rect x="150" y="96" width="105" height="28" rx="14" fill="#f6f8fa" stroke="#d0d7de"/><text x="163" y="114.5" font-family="ui-monospace, SFMono-Regular, Menlo, Consolas, 'Liberation Mono', monospace" font-size="13" fill="#1f2328">Claude API</text><rect x="263" y="96" width="105" height="28" rx="14" fill="#f6f8fa" stroke="#d0d7de"/><text x="276" y="114.5" font-family="ui-monospace, SFMono-Regular, Menlo, Consolas, 'Liberation Mono', monospace" font-size="13" fill="#1f2328">Gemini API</text><rect x="376" y="96" width="128" height="28" rx="14" fill="#f6f8fa" stroke="#d0d7de"/><text x="389" y="114.5" font-family="ui-monospace, SFMono-Regular, Menlo, Consolas, 'Liberation Mono', monospace" font-size="13" fill="#1f2328">E2B sandboxes</text><rect x="512" y="96" width="112" height="28" rx="14" fill="#f6f8fa" stroke="#d0d7de"/><text x="525" y="114.5" font-family="ui-monospace, SFMono-Regular, Menlo, Consolas, 'Liberation Mono', monospace" font-size="13" fill="#1f2328">Claude Code</text><g transform="translate(0 149) scale(2)" shape-rendering="crispEdges"><rect x="1" y="1" width="1" height="1" fill="#d2461f"/><rect x="2" y="1" width="1" height="1" fill="#d2461f"/><rect x="3" y="1" width="1" height="1" fill="#d2461f"/><rect x="0" y="2" width="1" height="1" fill="#d2461f"/><rect x="1" y="2" width="1" height="1" fill="#d2461f"/><rect x="2" y="2" width="1" height="1" fill="#d2461f"/><rect x="3" y="2" width="1" height="1" fill="#d2461f"/><rect x="4" y="2" width="1" height="1" fill="#d2461f"/><rect x="0" y="3" width="1" height="1" fill="#d2461f"/><rect x="2" y="3" width="1" height="1" fill="#d2461f"/><rect x="4" y="3" width="1" height="1" fill="#d2461f"/><rect x="0" y="4" width="1" height="1" fill="#d2461f"/><rect x="1" y="4" width="1" height="1" fill="#d2461f"/><rect x="2" y="4" width="1" height="1" fill="#d2461f"/><rect x="3" y="4" width="1" height="1" fill="#d2461f"/><rect x="4" y="4" width="1" height="1" fill="#d2461f"/><rect x="0" y="5" width="1" height="1" fill="#d2461f"/><rect x="1" y="5" width="1" height="1" fill="#d2461f"/><rect x="3" y="5" width="1" height="1" fill="#d2461f"/><rect x="4" y="5" width="1" height="1" fill="#d2461f"/></g><text x="22" y="161" font-family="ui-monospace, SFMono-Regular, Menlo, Consolas, 'Liberation Mono', monospace" font-size="11" fill="#656d76" letter-spacing="1.4">GAMES</text><rect x="150" y="142" width="65" height="28" rx="14" fill="#f6f8fa" stroke="#d0d7de"/><text x="163" y="160.5" font-family="ui-monospace, SFMono-Regular, Menlo, Consolas, 'Liberation Mono', monospace" font-size="13" fill="#1f2328">Godot</text><rect x="223" y="142" width="65" height="28" rx="14" fill="#f6f8fa" stroke="#d0d7de"/><text x="236" y="160.5" font-family="ui-monospace, SFMono-Regular, Menlo, Consolas, 'Liberation Mono', monospace" font-size="13" fill="#1f2328">Unity</text><g transform="translate(0 195) scale(2)" shape-rendering="crispEdges"><rect x="0" y="0" width="1" height="1" fill="#d2461f"/><rect x="1" y="0" width="1" height="1" fill="#d2461f"/><rect x="2" y="0" width="1" height="1" fill="#d2461f"/><rect x="3" y="0" width="1" height="1" fill="#d2461f"/><rect x="4" y="0" width="1" height="1" fill="#d2461f"/><rect x="0" y="1" width="1" height="1" fill="#d2461f"/><rect x="4" y="1" width="1" height="1" fill="#d2461f"/><rect x="0" y="2" width="1" height="1" fill="#d2461f"/><rect x="1" y="2" width="1" height="1" fill="#d2461f"/><rect x="2" y="2" width="1" height="1" fill="#d2461f"/><rect x="3" y="2" width="1" height="1" fill="#d2461f"/><rect x="4" y="2" width="1" height="1" fill="#d2461f"/><rect x="0" y="3" width="1" height="1" fill="#d2461f"/><rect x="4" y="3" width="1" height="1" fill="#d2461f"/><rect x="0" y="4" width="1" height="1" fill="#d2461f"/><rect x="1" y="4" width="1" height="1" fill="#d2461f"/><rect x="2" y="4" width="1" height="1" fill="#d2461f"/><rect x="3" y="4" width="1" height="1" fill="#d2461f"/><rect x="4" y="4" width="1" height="1" fill="#d2461f"/><rect x="0" y="5" width="1" height="1" fill="#d2461f"/><rect x="4" y="5" width="1" height="1" fill="#d2461f"/><rect x="0" y="6" width="1" height="1" fill="#d2461f"/><rect x="1" y="6" width="1" height="1" fill="#d2461f"/><rect x="2" y="6" width="1" height="1" fill="#d2461f"/><rect x="3" y="6" width="1" height="1" fill="#d2461f"/><rect x="4" y="6" width="1" height="1" fill="#d2461f"/></g><text x="22" y="207" font-family="ui-monospace, SFMono-Regular, Menlo, Consolas, 'Liberation Mono', monospace" font-size="11" fill="#656d76" letter-spacing="1.4">OPS</text><rect x="150" y="188" width="73" height="28" rx="14" fill="#f6f8fa" stroke="#d0d7de"/><text x="163" y="206.5" font-family="ui-monospace, SFMono-Regular, Menlo, Consolas, 'Liberation Mono', monospace" font-size="13" fill="#1f2328">Docker</text><rect x="231" y="188" width="65" height="28" rx="14" fill="#f6f8fa" stroke="#d0d7de"/><text x="244" y="206.5" font-family="ui-monospace, SFMono-Regular, Menlo, Consolas, 'Liberation Mono', monospace" font-size="13" fill="#1f2328">Nginx</text><rect x="304" y="188" width="81" height="28" rx="14" fill="#f6f8fa" stroke="#d0d7de"/><text x="317" y="206.5" font-family="ui-monospace, SFMono-Regular, Menlo, Consolas, 'Liberation Mono', monospace" font-size="13" fill="#1f2328">AWS EC2</text><rect x="393" y="188" width="65" height="28" rx="14" fill="#f6f8fa" stroke="#d0d7de"/><text x="406" y="206.5" font-family="ui-monospace, SFMono-Regular, Menlo, Consolas, 'Liberation Mono', monospace" font-size="13" fill="#1f2328">Linux</text><rect x="466" y="188" width="49" height="28" rx="14" fill="#f6f8fa" stroke="#d0d7de"/><text x="479" y="206.5" font-family="ui-monospace, SFMono-Regular, Menlo, Consolas, 'Liberation Mono', monospace" font-size="13" fill="#1f2328">Git</text><rect x="523" y="188" width="49" height="28" rx="14" fill="#f6f8fa" stroke="#d0d7de"/><text x="536" y="206.5" font-family="ui-monospace, SFMono-Regular, Menlo, Consolas, 'Liberation Mono', monospace" font-size="13" fill="#1f2328">K3s</text></svg>